<svg xmlns="http://www.w3.org/2000/svg" viewBox="10 10 80 80" fill="white">
  <title>ExternalLink</title>
  <path d="M14.8,71.1c0,7.7,6.3,14,14,14h36c7.7,0,14-6.3,14-14v-22c0-2.2-1.8-4-4-4c-2.2,0-4,1.8-4,4v22c0,3.3-2.7,6-6,6h-36
    c-3.3,0-6-2.7-6-6v-36c0-3.3,2.7-6,6-6h22c2.2,0,4-1.8,4-4s-1.8-4-4-4h-22c-7.7,0-14,6.3-14,14V71.1z"/>
  <path d="M85.2,18.9c0-0.3,0-0.5-0.1-0.8c0-0.1,0-0.1-0.1-0.2c0-0.2-0.1-0.4-0.2-0.5c0-0.1-0.1-0.2-0.1-0.2
    c-0.1-0.2-0.2-0.3-0.2-0.5c-0.3-0.4-0.7-0.8-1.1-1.1c-0.1-0.1-0.3-0.2-0.4-0.2s-0.2-0.1-0.3-0.1c-0.2-0.1-0.3-0.1-0.5-0.2l-0.2-0.1
    c-0.2,0-0.5-0.1-0.7-0.1h-0.1H62.8c-2.2,0-4,1.8-4,4s1.8,4,4,4h8.7L45.7,48.7c-1.5,1.6-1.5,4.1,0.1,5.7c1.5,1.5,4,1.5,5.5,0
    l25.9-25.8v8.7c0,2.2,1.8,4,4,4c2.2,0,4-1.8,4-4L85.2,18.9z"/>
</svg>
