<svg xmlns="http://www.w3.org/2000/svg" viewBox="0 0 100 100">
  <path fill="white" d="m73.051 22.91c-15.219-2.1094-30.871-2.1094-46.102 0-6.2812 0.87109-11.172 5.6484-12.16 11.898-0.80078 5.0117-1.1992 10.121-1.1992 15.199 0 5.0781 0.41016 10.238 1.2109 15.281 0.96875 6.1016 5.9688 10.949 12.141 11.809 7.6094 1.0586 15.371 1.5898 23.051 1.5898 7.6797 0 15.441-0.53125 23.051-1.5898 6.2695-0.87109 11.148-5.6094 12.141-11.809 0.80078-5.0391 1.2109-10.18 1.2109-15.281 0-5.1016-0.41016-10.238-1.2109-15.281-0.96875-6.1016-5.9688-10.949-12.141-11.809zm8.1875 41.738c-0.71094 4.4414-4.2188 7.8516-8.7383 8.4805-14.859 2.0586-30.141 2.0586-45 0-4.4492-0.62109-8.0391-4.1016-8.7383-8.4805-0.76953-4.8281-1.1602-9.7617-1.1602-14.648 0-4.8906 0.39063-9.7695 1.1484-14.57 0.71094-4.4883 4.2305-7.9297 8.7617-8.5586 7.4297-1.0312 15-1.5508 22.5-1.5508s15.07 0.51953 22.5 1.5508c4.4492 0.62109 8.0391 4.1016 8.7383 8.4805 0.76953 4.8281 1.1602 9.7617 1.1602 14.648 0 4.8906-0.39062 9.8203-1.1602 14.648z"/>
  <path fill="white" d="m63.02 48.27-20.84-12.031c-0.62109-0.35938-1.3789-0.35938-2 0-0.62109 0.35938-1 1.0195-1 1.7305v24.059c0 0.71094 0.37891 1.3789 1 1.7305 0.30859 0.17969 0.64844 0.26953 1 0.26953 0.35156 0 0.69141-0.089844 1-0.26953l20.84-12.031c0.62109-0.35937 1-1.0195 1-1.7305 0-0.71094-0.37891-1.3789-1-1.7305zm-19.84 10.301v-17.141l14.84 8.5703z"/>
</svg>
